# xmcd CD database file generated by Grip 3.3.1
# 
# Track frame offsets:
#       150
#       17966
#       36892
#       55185
#       73669
#       93594
#       116119
#       138794
#       168661
#       189745
#       219366
# 
# Disc length: 3272 seconds
# 
# Revision: 2
# Processed by: cddbd v1.5.2PL0 Copyright (c) Steve Scherf et al.
# Submitted via: Grip 3.3.1
# 
DISCID=a10cc60b
DTITLE=Floetry - Flo Ology
DYEAR=2005
DGENRE=R&B
TTITLE0=Blessed 2 Have
TTITLE1=SupaStar
TTITLE2=Closer
TTITLE3=My Apology
TTITLE4=Let Me In
TTITLE5=Lay Down
TTITLE6=Feelings
TTITLE7=Sometimes U Make Me Smile
TTITLE8=I'll Die
TTITLE9=Imagination
TTITLE10=I Want U
EXTD=
EXTT0=
EXTT1=
EXTT2=
EXTT3=
EXTT4=
EXTT5=
EXTT6=
EXTT7=
EXTT8=
EXTT9=
EXTT10=
PLAYORDER=
